<?xml version="1.0" encoding="iso-8859-1"?>
<!-- Generator: Adobe Illustrator 19.0.0, SVG Export Plug-In . SVG Version: 6.00 Build 0)  -->
<svg version="1.1" id="Layer_1" xmlns="http://www.w3.org/2000/svg" xmlns:xlink="http://www.w3.org/1999/xlink" x="0px" y="0px"
	 viewBox="0 0 504.32 504.32" style="enable-background:new 0 0 504.32 504.32;" xml:space="preserve">
<path style="fill:#FF7474;" d="M277.333,124.16c25.6,0,48.64-0.853,68.267-1.707v0.853v60.587h34.133V121.6v-0.853
	c45.227-2.56,68.267-5.12,68.267-5.12V76.373v-1.707l-153.6,6.827v8.533h-85.333v-8.533l-153.6-6.827v1.707v38.4
	c0,0,19.627,3.413,68.267,5.973l0,0v62.293h34.133v-60.587l0,0c19.627,0.853,41.813,0.853,68.267,0.853l0,0v59.733h51.2V124.16
	L277.333,124.16z M388.267,465.493h-51.2c0,0,8.533-128,8.533-213.333h34.133C379.733,337.493,388.267,465.493,388.267,465.493z
	 M345.6,252.16h34.133v-68.267H345.6V252.16z M166.4,465.493h-51.2c0,0,8.533-128,8.533-213.333h34.133
	C157.867,337.493,166.4,465.493,166.4,465.493z M123.733,252.16h34.133v-68.267h-34.133V252.16z M499.2,38.827V72.96L448,75.52
	l-153.6,6.827v8.533h-85.333v-8.533l-153.6-6.827l-51.2-2.56V38.827c0,0,102.4,8.533,247.467,8.533S499.2,38.827,499.2,38.827z"/>
<path style="fill:#51565F;" d="M388.267,469.76L388.267,469.76h-51.2l0,0H166.4l0,0h-51.2l0,0H4.267
	c-2.56,0-4.267-1.707-4.267-4.267c0-2.56,1.707-4.267,4.267-4.267h106.667c1.707-22.187,7.68-128.853,8.533-204.8h-12.8
	c-2.56,0-4.267-1.707-4.267-4.267c0-2.56,1.707-4.267,4.267-4.267h68.267c2.56,0,4.267,1.707,4.267,4.267
	c0,2.56-1.707,4.267-4.267,4.267h-12.8c0,75.947,6.827,182.613,8.533,204.8h162.987c1.707-22.187,7.68-128.853,8.533-204.8h-12.8
	c-2.56,0-4.267-1.707-4.267-4.267c0-2.56,1.707-4.267,4.267-4.267h68.267c2.56,0,4.267,1.707,4.267,4.267
	c0,2.56-1.707,4.267-4.267,4.267h-12.8c0,75.947,6.827,182.613,8.533,204.8h106.667c2.56,0,4.267,1.707,4.267,4.267
	c0,2.56-1.707,4.267-4.267,4.267H388.267L388.267,469.76z M341.333,461.227h41.813c-1.707-23.04-7.68-129.707-8.533-204.8h-25.6
	C349.867,331.52,343.04,438.187,341.333,461.227z M119.467,461.227h41.813c-1.707-23.04-7.68-129.707-8.533-204.8h-25.6
	C128,331.52,121.173,438.187,119.467,461.227z M379.733,222.293c-2.56,0-4.267-1.707-4.267-4.267V188.16h-25.6v29.867
	c0,2.56-1.707,4.267-4.267,4.267s-4.267-1.707-4.267-4.267V188.16h-179.2v29.867c0,2.56-1.707,4.267-4.267,4.267
	c-2.56,0-4.267-1.707-4.267-4.267V188.16H128v29.867c0,2.56-1.707,4.267-4.267,4.267c-2.56,0-4.267-1.707-4.267-4.267V188.16H72.533
	c-2.56,0-4.267-1.707-4.267-4.267c0-2.56,1.707-4.267,4.267-4.267h46.933v-53.76c-44.373-2.56-63.147-5.12-64.853-5.973
	c-2.56,0-4.267-2.56-3.413-5.12c0-2.56,2.56-4.267,5.12-3.413c0.853,0,52.907,8.533,186.88,8.533
	c134.827,0,203.947-8.533,203.947-8.533c2.56,0,4.267,1.707,5.12,3.413c0,2.56-1.707,4.267-3.413,5.12c0,0-22.187,2.56-64.853,5.12
	v54.613h46.933c2.56,0,4.267,1.707,4.267,4.267c0,2.56-1.707,4.267-4.267,4.267H384v29.867
	C384,220.587,382.293,222.293,379.733,222.293z M349.867,179.627h25.6v-54.613c-7.68,0-16.213,0.853-25.6,0.853V179.627z
	 M281.6,179.627h59.733V126.72c-17.92,0.853-37.547,0.853-59.733,1.707V179.627z M230.4,179.627h42.667v-51.2
	c-13.653,0-28.16,0-42.667,0V179.627z M162.133,179.627h59.733v-51.2c-22.187,0-42.667-0.853-59.733-0.853V179.627z M128,179.627
	h25.6V126.72c-9.387,0-17.92-0.853-25.6-0.853V179.627z M294.4,94.293h-85.333c-2.56,0-4.267-1.707-4.267-4.267V85.76L4.267,77.227
	C1.707,77.227,0,75.52,0,72.96s1.707-4.267,4.267-4.267l204.8,8.533c2.56,0,4.267,1.707,4.267,4.267v4.267h76.8v-4.267
	c0-2.56,1.707-4.267,4.267-4.267l204.8-8.533c2.56,0,4.267,1.707,4.267,4.267s-1.707,4.267-4.267,4.267L298.667,85.76v4.267
	C298.667,92.587,296.96,94.293,294.4,94.293z M251.733,51.627c-143.36,0-246.613-8.533-247.467-8.533
	c-2.56,0-4.267-2.56-4.267-4.267c0-2.56,2.56-4.267,4.267-4.267c0.853,0,104.107,8.533,247.467,8.533S497.493,34.56,499.2,34.56
	c2.56,0,4.267,1.707,4.267,4.267s-1.707,4.267-4.267,4.267C498.347,43.093,395.093,51.627,251.733,51.627z"/>
<g>
</g>
<g>
</g>
<g>
</g>
<g>
</g>
<g>
</g>
<g>
</g>
<g>
</g>
<g>
</g>
<g>
</g>
<g>
</g>
<g>
</g>
<g>
</g>
<g>
</g>
<g>
</g>
<g>
</g>
</svg>
